PathFileType	4	(X/Y/Z)	/Users/itak/Documents/Research/Walk-IL/dataset/trc/00570_00009.trc
DataRate	CameraRate	NumFrames	NumMarkers	Units	OrigDataRate	OrigDataStartFrame	OrigNumFrames
100.000000	100.000000	4	53	mm	100.000000	460	526
Frame#	Time	RPSI			LPSI			L3			STRN			T10			C7			CLAV			RBAK			LBAK			LSHO			LUPA			LAEL			LAOL			LWTS			LWPS			LFRA			LIFD			LHPS			LHTS			RSHO			RUPA			RAEL			RAOL			RWTS			RWPS			RFRA			RIFD			RHTS			RHPS			RBHD			LFHD			RFHD			LBHD			LHIP			RHIP			RASI			LASI			LKNE			LTHI			LANK			LTIP			LTOE			LMT1			LMT5			LHEE			RKNE			RTHI			RANK			RTIP			RTOE			RMT1			RMT5			RHEE			
		X1	Y1	Z1	X2	Y2	Z2	X3	Y3	Z3	X4	Y4	Z4	X5	Y5	Z5	X6	Y6	Z6	X7	Y7	Z7	X8	Y8	Z8	X9	Y9	Z9	X10	Y10	Z10	X11	Y11	Z11	X12	Y12	Z12	X13	Y13	Z13	X14	Y14	Z14	X15	Y15	Z15	X16	Y16	Z16	X17	Y17	Z17	X18	Y18	Z18	X19	Y19	Z19	X20	Y20	Z20	X21	Y21	Z21	X22	Y22	Z22	X23	Y23	Z23	X24	Y24	Z24	X25	Y25	Z25	X26	Y26	Z26	X27	Y27	Z27	X28	Y28	Z28	X29	Y29	Z29	X30	Y30	Z30	X31	Y31	Z31	X32	Y32	Z32	X33	Y33	Z33	X34	Y34	Z34	X35	Y35	Z35	X36	Y36	Z36	X37	Y37	Z37	X38	Y38	Z38	X39	Y39	Z39	X40	Y40	Z40	X41	Y41	Z41	X42	Y42	Z42	X43	Y43	Z43	X44	Y44	Z44	X45	Y45	Z45	X46	Y46	Z46	X47	Y47	Z47	X48	Y48	Z48	X49	Y49	Z49	X50	Y50	Z50	X51	Y51	Z51	X52	Y52	Z52	X53	Y53	Z53	

461	4.600000000000001	329.179931640625	1020.273559570312	1035.878173828125	463.1770629882812	1024.907958984375	1043.030151367188	399.6008605957031	1111.438354492188	1044.85791015625	404.3185119628906	1303.939819335938	1271.266723632812	403.4349060058594	1237.678466796875	1032.631591796875	393.1459045410156	1513.945922851562	1074.23046875	405.2319946289062	1415.150756835938	1249.856201171875	306.7589111328125	1386.601806640625	1005.705871582031	483.1539611816406	1459.1083984375	1040.5947265625	569.7052612304688	1483.178588867188	1135.083374023438	644.279296875	1353.14111328125	1120.013549804688	661.5851440429688	1131.449462890625	1128.686889648438	597.8123168945312	1127.987060546875	1050.917846679688	625.6846923828125	883.4072875976562	1209.36279296875	689.1473999023438	863.5140380859375	1151.90380859375	670.3684692382812	1043.97509765625	1144.683837890625	620.732666015625	713.8274536132812	1182.5537109375	681.118408203125	803.1304931640625	1154.916259765625	645.482421875	803.0145263671875	1213.018310546875	236.7012023925781	1477.651611328125	1134.103759765625	168.2942504882812	1411.894653320312	1117.059448242188	116.4216537475586	1125.601806640625	1110.120727539062	150.556396484375	1105.974243164062	1058.723388671875	125.6586151123047	904.9414672851562	1248.58544921875	64.08201599121094	887.3348388671875	1194.683837890625	105.4972991943359	1070.5849609375	1118.484375	113.9925003051758	731.3280639648438	1255.133422851562	102.0366897583008	814.42919921875	1273.588134765625	60.87628555297852	813.4629516601562	1211.532836914062	326.5653991699219	1695.662231445312	1155.733642578125	459.0263977050781	1716.054565429688	1314.72021484375	316.0695190429688	1712.39892578125	1295.647583007812	489.9943237304688	1698.538696289062	1185.631958007812	588.618408203125	944.6542358398438	1173.652465820312	200.3843078613281	946.605712890625	1156.886596679688	256.9779663085938	980.2941284179688	1243.896728515625	533.0926513671875	970.6210327148438	1251.845703125	515.6881713867188	500.2025146484375	1194.288818359375	556.4998779296875	664.651123046875	1197.953491210938	499.3638916015625	35.06395721435547	1103.927612304688	515.38134765625	255.8590850830078	1128.428833007812	432.4619140625	46.64690017700195	1313.9599609375	399.9130249023438	50.62950134277344	1240.046997070312	509.8072204589844	39.49712371826172	1227.09814453125	446.5048828125	37.23019790649414	1034.104370117188	250.2713928222656	504.3245239257812	1188.312866210938	204.3996887207031	793.873779296875	1194.023803710938	272.9041137695312	44.71070098876953	1084.3056640625	264.3565979003906	361.4407958984375	1181.90087890625	300.8004455566406	44.14302825927734	1306.78759765625	346.7143859863281	41.00875854492188	1243.204467773438	247.2203216552734	45.96277236938477	1214.738647460938	327.9195251464844	34.72827529907227	1031.853881835938	
462	4.61	328.822998046875	1020.272583007812	1036.728271484375	462.8065185546875	1024.8642578125	1043.943115234375	399.2589416503906	1111.458740234375	1045.667846679688	403.8122253417969	1303.905639648438	1271.987670898438	403.0255126953125	1237.68359375	1033.499755859375	392.6421813964844	1513.907836914062	1074.998291015625	404.7079772949219	1415.099853515625	1250.614013671875	306.2852783203125	1386.587646484375	1006.4296875	482.6731567382812	1459.114501953125	1041.412963867188	569.1864624023438	1483.283935546875	1135.931640625	643.8023071289062	1353.329345703125	1120.593505859375	661.1309814453125	1131.591186523438	1128.493530273438	597.3785400390625	1128.439086914062	1050.692749023438	625.4209594726562	883.2637329101562	1208.104370117188	688.9027099609375	863.5769653320312	1150.4970703125	670.0097045898438	1044.110473632812	1144.086669921875	620.5055541992188	713.6759643554688	1180.201049804688	680.9008178710938	803.1885986328125	1153.133544921875	645.2618408203125	802.7302856445312	1211.247314453125	236.1591949462891	1477.660400390625	1134.838256835938	167.7961273193359	1411.92529296875	1117.747924804688	115.7239685058594	1125.6796875	1110.619262695312	149.8544006347656	1106.014770507812	1059.27587890625	124.8838119506836	905.033203125	1249.183959960938	63.2000732421875	887.4462280273438	1195.185668945312	104.7249526977539	1070.684814453125	1119.003784179688	112.9943542480469	731.4016723632812	1255.75048828125	100.9942092895508	814.5601806640625	1274.170166015625	60.00678634643555	813.569580078125	1212.054809570312	326.0322265625	1695.59423828125	1156.558471679688	458.4771728515625	1715.954956054688	1315.62744140625	315.5407409667969	1712.351928710938	1296.527709960938	489.4647216796875	1698.47412109375	1186.49560546875	588.5164794921875	944.9376220703125	1174.92724609375	199.9122467041016	946.6055297851562	1157.633178710938	256.5462036132812	980.2423706054688	1244.676879882812	532.642578125	970.584228515625	1252.7646484375	515.3269653320312	500.1395874023438	1195.1142578125	556.1427001953125	664.561767578125	1198.781982421875	499.3125	35.10158920288086	1103.965209960938	515.195556640625	255.8446502685547	1128.84228515625	432.44189453125	46.63395309448242	1313.970703125	399.8596496582031	50.61428070068359	1240.087036132812	509.7843017578125	39.51409530639648	1227.115234375	446.4663696289062	37.26223373413086	1034.095336914062	250.0879821777344	504.2586364746094	1188.401977539062	203.9923706054688	793.7975463867188	1194.547973632812	272.9064331054688	44.71136093139648	1084.3271484375	264.2982482910156	361.3906555175781	1181.874877929688	300.7884216308594	44.12423324584961	1306.793334960938	346.7218933105469	40.99295425415039	1243.211547851562	247.2398681640625	45.95615005493164	1214.740234375	327.9307250976562	34.74139785766602	1031.859008789062	
463	4.62	328.439208984375	1020.242736816406	1037.585693359375	462.4162292480469	1024.802734375	1044.833618164062	398.9060668945312	1111.478271484375	1046.45654296875	403.3207397460938	1303.869506835938	1272.678100585938	402.6015930175781	1237.667358398438	1034.349487304688	392.1264953613281	1513.8603515625	1075.717407226562	404.2008666992188	1415.042602539062	1251.335815429688	305.7891540527344	1386.543212890625	1007.148376464844	482.1643981933594	1459.10888671875	1042.173095703125	568.6659545898438	1483.38427734375	1136.71923828125	643.3240966796875	1353.5107421875	1121.128662109375	660.7097778320312	1131.727172851562	1128.3779296875	596.9667358398438	1128.836303710938	1050.557739257812	625.203125	883.1624145507812	1207.06640625	688.7169799804688	863.671875	1149.33837890625	669.7011108398438	1044.261474609375	1143.621215820312	620.350341796875	713.5549926757812	1178.233032226562	680.7495727539062	803.2723999023438	1151.639526367188	645.1509399414062	802.5255126953125	1209.820922851562	235.6356353759766	1477.632568359375	1135.560668945312	167.2832946777344	1411.91455078125	1118.425537109375	115.0441055297852	1125.709228515625	1111.13134765625	149.1422576904297	1106.027587890625	1059.844848632812	124.2097396850586	905.110595703125	1249.81005859375	62.41584777832031	887.50390625	1195.733032226562	103.9936294555664	1070.741943359375	1119.538330078125	112.1717147827148	731.4545288085938	1256.43505859375	100.1140441894531	814.6671142578125	1274.8017578125	59.30213928222656	813.621826171875	1212.637329101562	325.496826171875	1695.512939453125	1157.373901367188	457.9381408691406	1715.859985351562	1316.4892578125	315.0202941894531	1712.29638671875	1297.3837890625	488.9247436523438	1698.4072265625	1187.302734375	588.3213500976562	945.103271484375	1176.0654296875	199.4615173339844	946.61181640625	1158.388305664062	256.1356506347656	980.1975708007812	1245.466064453125	532.2222290039062	970.5532836914062	1253.649291992188	514.9691162109375	500.0628967285156	1195.93505859375	555.7960815429688	664.4446411132812	1199.597290039062	499.2613830566406	35.14241409301758	1104.002807617188	515.017578125	255.8382873535156	1129.258666992188	432.4192504882812	46.62128448486328	1313.983764648438	399.8006896972656	50.59597396850586	1240.125	509.762451171875	39.53272247314453	1227.13232421875	446.4268493652344	37.29724502563477	1034.086669921875	249.8909149169922	504.1929626464844	1188.524780273438	203.6072082519531	793.6890869140625	1195.11767578125	272.9077758789062	44.71204376220703	1084.347778320312	264.2457275390625	361.3361206054688	1181.869995117188	300.7755737304688	44.10182571411133	1306.800415039062	346.7294616699219	40.97628021240234	1243.21826171875	247.2630310058594	45.95042037963867	1214.740600585938	327.9413146972656	34.75392913818359	1031.86083984375	
464	4.63	328.0327453613281	1020.182678222656	1038.44580078125	462.0069580078125	1024.722778320312	1045.698120117188	398.5314025878906	1111.489135742188	1047.230102539062	402.8432006835938	1303.828247070312	1273.339965820312	402.16650390625	1237.62548828125	1035.166870117188	391.59765625	1513.806030273438	1076.391479492188	403.7076416015625	1414.977416992188	1252.021606445312	305.2732543945312	1386.468383789062	1007.861511230469	481.6278991699219	1459.092529296875	1042.873291015625	568.14453125	1483.472045898438	1137.441772460938	642.8477172851562	1353.676025390625	1121.62158203125	660.3281860351562	1131.854248046875	1128.342407226562	596.5814819335938	1129.169189453125	1050.516479492188	625.031005859375	883.0805053710938	1206.24658203125	688.585693359375	863.7913818359375	1148.435302734375	669.4379272460938	1044.414794921875	1143.29931640625	620.2616577148438	713.4607543945312	1176.651611328125	680.6611938476562	803.3709716796875	1150.444091796875	645.124755859375	802.3822631835938	1208.72705078125	235.1356811523438	1477.566040039062	1136.266235351562	166.7450103759766	1411.861328125	1119.087280273438	114.3838119506836	1125.68896484375	1111.666381835938	148.4294738769531	1106.012451171875	1060.42919921875	123.618896484375	905.1689453125	1250.457275390625	61.73197937011719	887.50390625	1196.327270507812	103.3130035400391	1070.747680664062	1120.092895507812	111.5046997070312	731.4794311523438	1257.179077148438	99.38936614990234	814.73876953125	1275.478515625	58.72501754760742	813.6202392578125	1213.281982421875	324.9616088867188	1695.430908203125	1158.175903320312	457.4076232910156	1715.771728515625	1317.303466796875	314.5047607421875	1712.227905273438	1298.208374023438	488.375732421875	1698.341064453125	1188.05810546875	588.0186767578125	945.1319580078125	1177.047973632812	199.0221405029297	946.6226196289062	1159.150756835938	255.7361297607422	980.15771484375	1246.262451171875	531.8284912109375	970.5299682617188	1254.50048828125	514.6195678710938	499.9759826660156	1196.736938476562	555.4647216796875	664.3070068359375	1200.399169921875	499.2110900878906	35.18438339233398	1104.039306640625	514.8577880859375	255.8515777587891	1129.662841796875	432.3943481445312	46.60848617553711	1313.99853515625	399.7388916015625	50.57503890991211	1240.16064453125	509.7412414550781	39.55270767211914	1227.1484375	446.3872680664062	37.33488082885742	1034.078369140625	249.6799163818359	504.1269836425781	1188.678344726562	203.2504272460938	793.554931640625	1195.744995117188	272.9077758789062	44.7137336730957	1084.366821289062	264.1959533691406	361.2782592773438	1181.887451171875	300.7620544433594	44.0778923034668	1306.809448242188	346.7371520996094	40.95904922485352	1243.225219726562	247.2861938476562	45.94519424438477	1214.742065429688	327.9506225585938	34.76796340942383	1031.8603515625	
